<?xml version="1.0" encoding="UTF-8"?>
<svg width="16px" height="44px" viewBox="0 0 16 44" version="1.1" xmlns="http://www.w3.org/2000/svg" xmlns:xlink="http://www.w3.org/1999/xlink">
        <g id="noun_Key_1227466" transform="translate(-15.000000, -2.000000)" fill="#000000" fill-rule="nonzero">
            <path d="M38.6377707,8.39352369 C40.0710358,9.84053892 40.3579888,12.0378621 39.4633294,13.7492801 C40.1427366,15.0277935 40.189937,16.58671 39.5312301,17.918974 C38.4369186,20.1321973 35.72054,21.0356068 33.5138168,19.912895 L33.5033166,19.9008949 C32.5797069,19.4273899 31.8882996,18.6636818 31.4706952,17.7820225 L30.7900381,18.4692298 L30.9943902,19.4514401 C31.1769421,20.3286994 30.4219842,21.2651092 29.5361249,21.2601092 L28.0786095,21.2516091 C28.3404623,21.816415 28.2137609,22.5369226 27.7766063,22.9685272 C27.3394017,23.4001317 26.6228942,23.5121829 26.0692384,23.23538 L15.4528756,33.9314526 L15.8193794,34.3014565 C16.4049356,33.7103003 16.9903918,33.119194 17.5758979,32.5280378 C18.7975108,33.7613508 20.0763743,35.0525144 21.1296853,36.1159756 C20.5319791,36.719482 19.8932723,37.3642887 19.3731669,37.8894443 C19.0178131,37.5305905 18.6624094,37.1717867 18.3070056,36.8130829 L17.9557019,37.1677367 C18.3110557,37.5265905 18.6664594,37.8852942 19.0218132,38.244148 C18.3021556,38.9707057 17.5380475,39.7421138 16.913941,40.3722704 C16.5585872,40.0135166 16.2031835,39.6546629 15.8477797,39.2959091 L15.496476,39.6505628 C15.8518798,40.0093666 16.2072335,40.3681704 16.5626373,40.7269742 C15.964931,41.3304305 15.3261742,41.9752873 14.8060688,42.5003928 C13.5844559,41.2670798 12.3055924,39.9758662 11.2522313,38.912455 C11.8377875,38.3212988 12.4232937,37.7301426 13.0088498,37.1390364 L12.642346,36.7689825 L10.556424,38.8750047 C10.0075682,39.4451607 8.98465746,39.4465107 8.42135153,38.8800047 C7.8580456,38.3112987 7.85939561,37.2784878 8.42635158,36.724382 L23.9390659,21.0849073 C23.661713,20.5274015 23.7686141,19.8031938 24.1937686,19.3593392 C24.6189231,18.9154345 25.3319806,18.7835331 25.8928365,19.0450358 L25.8978366,17.5847205 C25.8928365,16.690311 26.8204463,15.928053 27.6892554,16.112455 L28.6621157,16.3187071 L29.3099225,15.6647002 C28.499914,15.2371457 27.7976566,14.5710387 27.3553019,13.6913295 L27.3443018,13.6798293 C26.2322901,11.4519059 27.1270995,8.70942701 29.3192726,7.60456538 C30.5872859,6.96550865 32.0620015,6.97755878 33.3052646,7.59456527 C35.0043324,6.52645403 37.2281559,6.96010859 38.6429708,8.3946737 L38.6377707,8.39352369 Z M36.5298985,10.5216461 C35.9334922,9.91883975 35.0172326,9.90928965 34.4207763,10.4981458 C34.1606736,10.7451484 33.8865707,10.9029501 33.539767,10.9167503 C33.1117125,10.9743509 32.6591578,10.8336494 32.3341043,10.5417963 C31.8691994,10.1234419 31.2279927,10.0311909 30.6765369,10.3091439 C29.9233289,10.6887479 29.6299259,11.5805572 30.0145299,12.3454153 C30.399234,13.1102234 31.2748932,13.4054765 32.0280511,13.0259725 C32.5982571,12.6887189 33.3951655,12.7999201 33.8624204,13.2818252 C34.3745758,13.7478301 34.5058772,14.5849889 34.1603736,15.1786951 C33.7843696,15.9392031 34.0768727,16.8232124 34.8343807,17.2116165 C35.5919386,17.5999206 36.4752479,17.3037175 36.8512519,16.5432595 C37.1163547,16.0070539 37.0250037,15.3866473 36.6543498,14.9256425 C36.1890449,14.4452874 36.0915939,13.9939827 36.1377444,13.4064765 C36.2014951,13.0676229 36.386447,12.8383205 36.5965492,12.5846678 C37.1585551,12.0047617 37.1145547,11.1400026 36.5299485,10.5213961 L36.5298985,10.5216461 Z" id="Shape" transform="translate(24.000000, 24.750196) rotate(-46.000000) translate(-24.000000, -24.750196) "></path>
        </g>
</svg>